# xmcd
#
# Track frame offsets:
#       150
#       16950
#       30225
#       67575
#
# Disc length: 1158 seconds
#
# Revision: 0
# Processed by: cddbd v1.5.2PL0 Copyright (c) Steve Scherf et al.
# Submitted via: WaveLab 6.10
#
DISCID=1d048404
DTITLE=SYS - Click Crack
DYEAR=2009
DGENRE=Poly Axis eXtremes POP
TTITLE0=Click Crack
TTITLE1=Clip Clap
TTITLE2=cLip Rouge
TTITLE3=sCrap
EXTD=
EXTT0=
EXTT1=
EXTT2=
EXTT3=
PLAYORDER=
